<svg xmlns="http://www.w3.org/2000/svg" viewBox="0 0 800 50">
  <path d="M0,25 Q20,5 40,25 Q60,45 80,25 Q100,5 120,25 Q140,45 160,25 Q180,5 200,25 Q220,45 240,25 Q260,5 280,25 Q300,45 320,25 Q340,5 360,25 Q380,45 400,25 Q420,5 440,25 Q460,45 480,25 Q500,5 520,25 Q540,45 560,25 Q580,5 600,25 Q620,45 640,25 Q660,5 680,25 Q700,45 720,25 Q740,5 760,25 Q780,45 800,25" fill="none" stroke="#8b1a1a" stroke-width="2" opacity="0.3"/>
  <path d="M0,25 Q20,45 40,25 Q60,5 80,25 Q100,45 120,25 Q140,5 160,25 Q180,45 200,25 Q220,5 240,25 Q260,45 280,25 Q300,5 320,25 Q340,45 360,25 Q380,5 400,25 Q420,45 440,25 Q460,5 480,25 Q500,45 520,25 Q540,5 560,25 Q580,45 600,25 Q620,5 640,25 Q660,45 680,25 Q700,5 720,25 Q740,45 760,25 Q780,5 800,25" fill="none" stroke="#f0c808" stroke-width="2" opacity="0.2"/>
</svg>
