<svg xmlns="http://www.w3.org/2000/svg" viewBox="0 0 100 100">
  <rect width="100" height="100" fill="none"/>
  <path d="M10,10 C15,5 20,5 25,10 C30,15 35,15 40,10 C45,5 50,5 55,10 C60,15 65,15 70,10 C75,5 80,5 85,10 C90,15 95,15 100,10" stroke="#8b1a1a" stroke-width="1" fill="none" opacity="0.2"/>
  <path d="M10,20 C15,15 20,15 25,20 C30,25 35,25 40,20 C45,15 50,15 55,20 C60,25 65,25 70,20 C75,15 80,15 85,20 C90,25 95,25 100,20" stroke="#8b1a1a" stroke-width="1" fill="none" opacity="0.2"/>
  <path d="M10,30 C15,25 20,25 25,30 C30,35 35,35 40,30 C45,25 50,25 55,30 C60,35 65,35 70,30 C75,25 80,25 85,30 C90,35 95,35 100,30" stroke="#8b1a1a" stroke-width="1" fill="none" opacity="0.2"/>
  <path d="M10,40 C15,35 20,35 25,40 C30,45 35,45 40,40 C45,35 50,35 55,40 C60,45 65,45 70,40 C75,35 80,35 85,40 C90,45 95,45 100,40" stroke="#8b1a1a" stroke-width="1" fill="none" opacity="0.2"/>
  <path d="M10,50 C15,45 20,45 25,50 C30,55 35,55 40,50 C45,45 50,45 55,50 C60,55 65,55 70,50 C75,45 80,45 85,50 C90,55 95,55 100,50" stroke="#8b1a1a" stroke-width="1" fill="none" opacity="0.2"/>
  <path d="M10,60 C15,55 20,55 25,60 C30,65 35,65 40,60 C45,55 50,55 55,60 C60,65 65,65 70,60 C75,55 80,55 85,60 C90,65 95,65 100,60" stroke="#8b1a1a" stroke-width="1" fill="none" opacity="0.2"/>
  <path d="M10,70 C15,65 20,65 25,70 C30,75 35,75 40,70 C45,65 50,65 55,70 C60,75 65,75 70,70 C75,65 80,65 85,70 C90,75 95,75 100,70" stroke="#8b1a1a" stroke-width="1" fill="none" opacity="0.2"/>
  <path d="M10,80 C15,75 20,75 25,80 C30,85 35,85 40,80 C45,75 50,75 55,80 C60,85 65,85 70,80 C75,75 80,75 85,80 C90,85 95,85 100,80" stroke="#8b1a1a" stroke-width="1" fill="none" opacity="0.2"/>
  <path d="M10,90 C15,85 20,85 25,90 C30,95 35,95 40,90 C45,85 50,85 55,90 C60,95 65,95 70,90 C75,85 80,85 85,90 C90,95 95,95 100,90" stroke="#8b1a1a" stroke-width="1" fill="none" opacity="0.2"/>
</svg>
