<svg xmlns="http://www.w3.org/2000/svg" viewBox="0 0 100 100">
  <rect width="100" height="100" fill="none"/>
  <path d="M10,10 L20,10 L20,20 L10,20 Z" stroke="#8b1a1a" stroke-width="1" fill="none" opacity="0.15"/>
  <path d="M30,10 L40,10 L40,20 L30,20 Z" stroke="#8b1a1a" stroke-width="1" fill="none" opacity="0.15"/>
  <path d="M50,10 L60,10 L60,20 L50,20 Z" stroke="#8b1a1a" stroke-width="1" fill="none" opacity="0.15"/>
  <path d="M70,10 L80,10 L80,20 L70,20 Z" stroke="#8b1a1a" stroke-width="1" fill="none" opacity="0.15"/>
  <path d="M20,30 L30,30 L30,40 L20,40 Z" stroke="#8b1a1a" stroke-width="1" fill="none" opacity="0.15"/>
  <path d="M40,30 L50,30 L50,40 L40,40 Z" stroke="#8b1a1a" stroke-width="1" fill="none" opacity="0.15"/>
  <path d="M60,30 L70,30 L70,40 L60,40 Z" stroke="#8b1a1a" stroke-width="1" fill="none" opacity="0.15"/>
  <path d="M80,30 L90,30 L90,40 L80,40 Z" stroke="#8b1a1a" stroke-width="1" fill="none" opacity="0.15"/>
  <path d="M10,50 L20,50 L20,60 L10,60 Z" stroke="#8b1a1a" stroke-width="1" fill="none" opacity="0.15"/>
  <path d="M30,50 L40,50 L40,60 L30,60 Z" stroke="#8b1a1a" stroke-width="1" fill="none" opacity="0.15"/>
  <path d="M50,50 L60,50 L60,60 L50,60 Z" stroke="#8b1a1a" stroke-width="1" fill="none" opacity="0.15"/>
  <path d="M70,50 L80,50 L80,60 L70,60 Z" stroke="#8b1a1a" stroke-width="1" fill="none" opacity="0.15"/>
  <path d="M20,70 L30,70 L30,80 L20,80 Z" stroke="#8b1a1a" stroke-width="1" fill="none" opacity="0.15"/>
  <path d="M40,70 L50,70 L50,80 L40,80 Z" stroke="#8b1a1a" stroke-width="1" fill="none" opacity="0.15"/>
  <path d="M60,70 L70,70 L70,80 L60,80 Z" stroke="#8b1a1a" stroke-width="1" fill="none" opacity="0.15"/>
  <path d="M80,70 L90,70 L90,80 L80,80 Z" stroke="#8b1a1a" stroke-width="1" fill="none" opacity="0.15"/>
</svg>
